<?xml version="1.0" encoding="UTF-8" standalone="no"?>
<!-- Created with Inkscape (http://www.inkscape.org/) -->

<svg
   xmlns:dc="http://purl.org/dc/elements/1.1/"
   xmlns:cc="http://creativecommons.org/ns#"
   xmlns:rdf="http://www.w3.org/1999/02/22-rdf-syntax-ns#"
   xmlns:svg="http://www.w3.org/2000/svg"
   xmlns="http://www.w3.org/2000/svg"
   xmlns:sodipodi="http://sodipodi.sourceforge.net/DTD/sodipodi-0.dtd"
   xmlns:inkscape="http://www.inkscape.org/namespaces/inkscape"
   width="210mm"
   height="297mm"
   viewBox="0 0 744.09448819 1052.3622047"
   id="svg2"
   version="1.1"
   inkscape:version="0.91 r13725"
   sodipodi:docname="Luftbefeuchter.svg">
  <defs
     id="defs4" />
  <sodipodi:namedview
     id="base"
     pagecolor="#ffffff"
     bordercolor="#666666"
     borderopacity="1.0"
     inkscape:pageopacity="0.0"
     inkscape:pageshadow="2"
     inkscape:zoom="1.979899"
     inkscape:cx="378.12163"
     inkscape:cy="598.7598"
     inkscape:document-units="px"
     inkscape:current-layer="layer1"
     showgrid="false"
     inkscape:snap-global="true"
     inkscape:snap-grids="true"
     showguides="true"
     inkscape:guide-bbox="true"
     inkscape:window-width="1680"
     inkscape:window-height="988"
     inkscape:window-x="-8"
     inkscape:window-y="-8"
     inkscape:window-maximized="1">
    <sodipodi:guide
       position="-290,694.28573"
       orientation="1,0"
       id="guide3358" />
  </sodipodi:namedview>
  <metadata
     id="metadata7">
    <rdf:RDF>
      <cc:Work
         rdf:about="">
        <dc:format>image/svg+xml</dc:format>
        <dc:type
           rdf:resource="http://purl.org/dc/dcmitype/StillImage" />
        <dc:title />
      </cc:Work>
    </rdf:RDF>
  </metadata>
  <g
     inkscape:label="Layer 1"
     inkscape:groupmode="layer"
     id="layer1">
    <rect
       style="fill:#000000;fill-rule:evenodd;stroke:#000000;stroke-width:1px;stroke-linecap:butt;stroke-linejoin:miter;stroke-opacity:1"
       id="rect3346"
       width="291.42856"
       height="430"
       x="205.71428"
       y="513.79077" />
    <path
       style="fill:#000000"
       id="path3356"
       sodipodi:type="arc"
       sodipodi:cx="351.42859"
       sodipodi:cy="516.64789"
       sodipodi:rx="146.24998"
       sodipodi:ry="137.14285"
       sodipodi:start="0"
       sodipodi:end="6.2767276"
       d="M 497.67857,516.64789 A 146.24998,137.14285 0 0 1 351.6647,653.79056 146.24998,137.14285 0 0 1 205.17937,517.0907 146.24998,137.14285 0 0 1 350.72026,379.50664 146.24998,137.14285 0 0 1 497.67552,515.76227 l -146.24693,0.88562 z" />
    <rect
       style="fill:#ffffff"
       id="rect3360"
       width="281.71829"
       height="409.21393"
       x="211.32704"
       y="529.50507" />
    <path
       style="fill:#ffffff"
       id="path3362"
       sodipodi:type="arc"
       sodipodi:cx="351.96429"
       sodipodi:cy="520.2193"
       sodipodi:rx="141.24998"
       sodipodi:ry="134.64285"
       sodipodi:start="0"
       sodipodi:end="6.2821461"
       d="M 493.21428,520.2193 A 141.24998,134.64285 0 0 1 352.00099,654.86215 141.24998,134.64285 0 0 1 210.71433,520.28926 141.24998,134.64285 0 0 1 351.8542,385.57649 a 141.24998,134.64285 0 0 1 141.36,134.50289"
       sodipodi:open="true" />
    <rect
       style="fill:#000000"
       id="rect3366"
       width="40.714287"
       height="42.857143"
       x="328.57141"
       y="339.50507" />
    <rect
       style="fill:#ffffff"
       id="rect3368"
       width="34.285671"
       height="59.107132"
       x="331.96426"
       y="331.82648" />
    <rect
       style="fill:#000000"
       id="rect3379"
       width="31.174665"
       height="13.384249"
       x="153.91705"
       y="603.92633"
       transform="matrix(0.8784539,-0.47782711,0.52250523,0.85263608,0,0)" />
    <rect
       style="fill:#ffffff"
       id="rect3385"
       width="64.580322"
       height="9.8614283"
       x="149.34114"
       y="606.74469"
       transform="matrix(0.87471215,-0.48464282,0.51551597,0.85687997,0,0)" />
    <rect
       style="fill:#71c837"
       id="rect3426"
       width="235.35713"
       height="25"
       x="232.85713"
       y="913.43365" />
    <rect
       style="fill:#ffd42a"
       id="rect3428"
       width="281.59818"
       height="166.07143"
       x="211.25897"
       y="747.36218" />
    <path
       style="fill:#000000"
       d="m 210.35715,724.14795 283.92856,0 0,4.28571 -283.92856,0 z"
       id="rect3352" />
    <rect
       style="fill:#ffffff"
       id="rect4155"
       width="4.0406103"
       height="24.748737"
       x="254.55844"
       y="711.68817" />
    <rect
       style="fill:#ffffff"
       id="rect4155-8"
       width="4.0406103"
       height="24.748737"
       x="289.66122"
       y="711.9408" />
    <rect
       style="fill:#ffffff"
       id="rect4155-8-9"
       width="4.0406103"
       height="24.748737"
       x="319.46075"
       y="711.68817" />
    <rect
       style="fill:#ffffff"
       id="rect4155-8-93"
       width="4.0406103"
       height="24.748737"
       x="224.25386"
       y="711.18311" />
    <rect
       style="fill:#ffffff"
       id="rect4155-8-9-7"
       width="4.0406103"
       height="24.748737"
       x="349.51279"
       y="712.69843" />
    <rect
       style="fill:#ffffff"
       id="rect4155-8-9-0"
       width="4.0406103"
       height="24.748737"
       x="376.7869"
       y="712.69843" />
    <rect
       style="fill:#ffffff"
       id="rect4155-8-9-1"
       width="4.0406103"
       height="24.748737"
       x="474.7717"
       y="711.68829" />
    <rect
       style="fill:#ffffff"
       id="rect4155-8-9-8"
       width="4.0406103"
       height="24.748737"
       x="448.00266"
       y="711.18317" />
    <rect
       style="fill:#ffffff"
       id="rect4155-8-9-6"
       width="4.0406103"
       height="24.748737"
       x="409.61685"
       y="712.69836" />
    <path
       style="fill:none;fill-rule:evenodd;stroke:#000000;stroke-width:1px;stroke-linecap:butt;stroke-linejoin:miter;stroke-opacity:1"
       d="m 451.28565,442.48261 -31.31473,19.19289 53.19889,460.08116 -34.76361,0.29587 0,8.08122 45.96195,-0.56821 -52.40386,-461.84619 25.17857,-16.42857"
       id="path4250"
       inkscape:connector-curvature="0"
       sodipodi:nodetypes="cccccccc" />
    <rect
       style="fill:#ffffff"
       id="rect4252"
       width="2.6785715"
       height="2.6785715"
       x="271.25"
       y="913.25507" />
    <rect
       style="fill:#ffffff"
       id="rect4252-6"
       width="2.6785715"
       height="2.6785715"
       x="292.23215"
       y="913.52295" />
    <rect
       style="fill:#ffffff"
       id="rect4252-62"
       width="2.6785715"
       height="2.6785715"
       x="375.26788"
       y="913.52295" />
    <rect
       style="fill:#ffffff"
       id="rect4252-8"
       width="2.6785715"
       height="2.6785715"
       x="397.94644"
       y="913.52289" />
    <rect
       style="fill:#ffffff"
       id="rect4252-9"
       width="2.6785715"
       height="2.6785715"
       x="419.73218"
       y="913.52301" />
    <rect
       style="fill:#ffffff"
       id="rect4252-2"
       width="2.6785715"
       height="2.6785715"
       x="441.16074"
       y="913.52289" />
    <rect
       style="fill:#ffffff"
       id="rect4252-629"
       width="2.6785715"
       height="2.6785715"
       x="311.87503"
       y="913.52289" />
    <rect
       style="fill:#ffffff"
       id="rect4252-4"
       width="2.6785715"
       height="2.6785715"
       x="333.30359"
       y="913.3443" />
    <rect
       style="fill:#ffffff"
       id="rect4252-60"
       width="2.6785715"
       height="2.6785715"
       x="353.30359"
       y="913.52289" />
    <rect
       style="fill:#ffffff"
       id="rect4252-80"
       width="2.6785715"
       height="2.6785715"
       x="252.23215"
       y="913.34436" />
    <rect
       style="fill:#000000"
       id="rect4317"
       width="56.964283"
       height="4.6428571"
       x="320.17856"
       y="333.96936" />
    <rect
       style="fill:#000000"
       id="rect4319"
       width="7.76337"
       height="20.357143"
       x="320.17859"
       y="336.2908" />
    <rect
       style="fill:#000000"
       id="rect4319-3"
       width="7.3214283"
       height="20.357143"
       x="369.80426"
       y="336.64792" />
    <rect
       style="fill:#ffffff"
       id="rect4336"
       width="3.9774756"
       height="14.394673"
       x="347.23993"
       y="328.90356" />
  </g>
</svg>
